:SAMPLES-PER-SECOND 30
:FULLY-SPECIFIED
:DEGREES
133
root  -48.3991 37.5284 5.61399 127.548 -89.9718 -137.958
RightUpLeg  -15.3953 -19.508 -9.03747
RightLeg  37.8154 7.94441 6.291
RightFoot  -9.63239 -0.0752988 0.67396
RightToes  5.82063e-011 0 -3.6325e-017
Spine  40.1387 -9.1731 13.2894
Spine1  12.8228 -4.27896 -2.0801
HEad  -10.6491 -2.13687 -6.52983
LeftShoulder1  1.18013 -0.127376 -26.3464
LeftArm  -0.771971 -16.8469 -48.6493
LeftForeArm  22.558 -23.94 -3.988
LeftHand  -0.0340167 1.3286 0.734273
RightShoulder  0.34191 -2.18538 19.9455
RightArm  6.2537 37.5888 49.9339
RightForeArm  6.8102 -1.47422 5.11938
RightHand  -0.349963 2.25464 -5.51889
LeftUpLeg  -25.3191 6.31764 -5.03893
LeftLeg  61.5377 -0.0663141 0.371593
LeftFoot  -4.05291 0.160851 -2.13702
LeftToes  2.58842e-009 -1.78069e-010 3.24654e-012
134
root  -49.3944 37.835 5.24893 -54.866 -88.3499 44.8979
RightUpLeg  -13.404 -19.9117 -10.3478
RightLeg  37.2699 7.53806 5.84444
RightFoot  -11.2243 -0.076192 0.58234
RightToes  5.82063e-011 0 -3.6325e-017
Spine  42.3605 -9.13067 12.2853
Spine1  12.4944 -4.49345 -2.20544
HEad  -12.6396 -3.49254 -5.88915
LeftShoulder1  1.34813 -0.763632 -25.3926
LeftArm  -0.585696 -20.3716 -49.4193
LeftForeArm  22.8114 -21.4402 -3.8755
LeftHand  -0.0609386 0.64525 1.36884
RightShoulder  0.423317 -1.7957 18.5379
RightArm  4.51963 41.2111 48.4566
RightForeArm  4.02557 1.66562 4.66778
RightHand  -0.368292 2.72003 -5.47715
LeftUpLeg  -26.6756 6.23338 -7.33499
LeftLeg  49.9997 1.55254 2.42434
LeftFoot  -4.31203 0.112365 -1.42286
LeftToes  2.58842e-009 -1.78069e-010 3.24654e-012
135
root  -50.3905 37.9845 4.94322 -36.6896 -87.1718 28.0593
RightUpLeg  -12.7706 -20.4324 -10.4901
RightLeg  37.2443 6.75665 5.21272
RightFoot  -12.9015 -0.0813193 0.478459
RightToes  5.82063e-011 0 -3.6325e-017
Spine  43.3745 -9.22843 12.1548
Spine1  12.5389 -4.67169 -2.21449
HEad  -14.2702 -4.46629 -5.42226
LeftShoulder1  1.46641 -1.21376 -24.8857
LeftArm  -1.07931 -24.0935 -49.7095
LeftForeArm  23.2445 -19.8123 -4.21145
LeftHand  -0.0139061 2.20802 0.125429
RightShoulder  0.462016 -1.52939 16.9552
RightArm  2.9245 44.933 46.4987
RightForeArm  1.82151 5.01613 4.44865
RightHand  -0.465286 3.4724 -6.34151
LeftUpLeg  -27.1789 5.19366 -8.44479
LeftLeg  35.7941 2.80399 2.60187
LeftFoot  -3.46937 0.185249 -2.33038
LeftToes  2.58842e-009 -1.78069e-010 3.24654e-012
136
root  -51.416 38.0013 4.72055 -33.6554 -86.8227 26.4339
RightUpLeg  -12.809 -20.7407 -9.91999
RightLeg  37.9634 6.33179 5.00364
RightFoot  -14.3416 -0.0977607 -0.0214724
RightToes  5.82063e-011 0 -3.6325e-017
Spine  44.003 -9.39611 12.4441
Spine1  12.7797 -4.43476 -3.02295
HEad  -15.8559 -4.78049 -4.52029
LeftShoulder1  1.56741 -1.69248 -23.9228
LeftArm  -1.26023 -27.019 -49.7659
LeftForeArm  22.9728 -18.7155 -4.52332
LeftHand  -0.0239112 2.12902 0.40316
RightShoulder  0.526142 -1.15568 15.8348
RightArm  1.63584 48.4455 44.1637
RightForeArm  0.539347 7.88676 4.46435
RightHand  -0.537085 4.52788 -6.56647
LeftUpLeg  -26.5518 3.62595 -8.06855
LeftLeg  20.9947 3.69462 1.78773
LeftFoot  -1.26302 0.328084 -3.66052
LeftToes  2.58842e-009 -1.78069e-010 3.24654e-012
137
root  -52.4681 37.6982 4.70004 -0.447342 -84.5782 -4.64519
RightUpLeg  -13.8284 -24.2448 -8.69583
RightLeg  40.4923 6.27672 5.43181
RightFoot  -16.6625 -0.12404 -0.229164
RightToes  5.82063e-011 0 -3.6325e-017
Spine  42.3029 -11.5977 15.4053
Spine1  13.6113 -5.43226 -4.46449
HEad  -17.1404 -4.83582 -5.16343
LeftShoulder1  1.6484 -2.10498 -23.1049
LeftArm  -2.71545 -29.4144 -49.8578
LeftForeArm  23.2739 -18.2999 -4.49971
LeftHand  -0.0674552 1.08327 1.68361
RightShoulder  0.603538 -0.609349 14.088
RightArm  -0.473177 51.632 42.5014
RightForeArm  1.34595 9.85442 4.02395
RightHand  -0.533929 4.57755 -6.50028
LeftUpLeg  -27.5247 -3.94463 -5.55552
LeftLeg  11.4381 5.96409 1.75742
LeftFoot  -0.255859 0.328355 -3.32525
LeftToes  2.58842e-009 -1.78069e-010 3.24654e-012
138
root  -53.6134 37.3537 4.59075 7.51472 -84.226 -11.8705
RightUpLeg  -14.0023 -24.8149 -8.18607
RightLeg  43.6262 5.90535 5.68739
RightFoot  -19.0976 -0.104087 0.284579
RightToes  5.82063e-011 0 -3.6325e-017
Spine  42.4417 -12.0925 15.6448
Spine1  14.7737 -5.45738 -5.19571
HEad  -17.9847 -4.29607 -5.4054
LeftShoulder1  1.69261 -2.38362 -22.4353
LeftArm  -3.33947 -31.9835 -49.2415
LeftForeArm  22.1011 -17.656 -4.66405
LeftHand  -0.0918297 0.792495 2.21484
RightShoulder  0.666113 -0.0181541 12.0834
RightArm  -2.4772 54.4461 41.7855
RightForeArm  2.10693 10.9562 3.49785
RightHand  -0.512835 4.20431 -6.4798
LeftUpLeg  -27.822 -6.10957 -4.10093
LeftLeg  8.49417 6.07961 1.77305
LeftFoot  0.820151 0.204338 -1.9256
LeftToes  2.58842e-009 -1.78069e-010 3.24654e-012
139
root  -54.7334 37.0908 4.34661 -15.5999 -86.4416 10.3142
RightUpLeg  -14.5345 -21.3028 -9.37277
RightLeg  49.0742 4.63908 5.35857
RightFoot  -19.5786 0.113497 3.48944
RightToes  5.82063e-011 0 -3.6325e-017
Spine  46.0432 -10.4244 11.9805
Spine1  15.4669 -4.09419 -5.92041
HEad  -18.7639 -3.14951 -3.27529
LeftShoulder1  1.73044 -2.78329 -21.1472
LeftArm  -5.92025 -34.1437 -49.3652
LeftForeArm  23.2228 -17.2183 -4.36245
LeftHand  -0.0498772 1.70791 1.32426
RightShoulder  0.693128 0.38066 10.6605
RightArm  -4.41609 57.156 41.3935
RightForeArm  1.96133 10.943 3.02549
RightHand  -0.525012 4.737 -6.27533
LeftUpLeg  -27.1822 -2.78939 -5.03176
LeftLeg  10.9475 5.46104 1.28637
LeftFoot  8.72006 -0.293135 0.965221
LeftToes  2.58842e-009 -1.78069e-010 3.24654e-012
140
root  -55.7676 36.7738 4.10401 -80.7863 -87.038 74.3386
RightUpLeg  -17.7312 -17.7395 -12.5623
RightLeg  58.7024 3.15575 5.10577
RightFoot  -15.6349 0.182934 9.31674
RightToes  5.82063e-011 0 -3.6325e-017
Spine  50.8193 -7.94715 6.87592
Spine1  14.8692 -3.27539 -5.63477
HEad  -20.842 -2.97804 -3.41863
LeftShoulder1  1.78675 -3.3362 -19.6285
LeftArm  -7.52908 -36.7725 -49.5054
LeftForeArm  23.2276 -16.4332 -4.23049
LeftHand  -0.0450899 1.82841 1.16314
RightShoulder  0.671919 0.729797 8.47908
RightArm  -6.16951 58.9126 41.1835
RightForeArm  0.00637659 10.9265 2.636
RightHand  -0.725588 5.4883 -8.051
LeftUpLeg  -26.9043 1.69261 -7.78376
LeftLeg  14.1939 2.55372 0.128564
LeftFoot  16.9965 -1.60215 6.12211
LeftToes  2.58842e-009 -1.78069e-010 3.24654e-012
141
root  -56.6146 36.3602 4.14564 -55.0957 -83.747 49.0918
RightUpLeg  -23.3427 -20.8107 -15.8513
RightLeg  69.2181 1.9183 4.90072
RightFoot  -5.26966 -0.392955 10.0307
RightToes  5.82063e-011 0 -3.6325e-017
Spine  53.5053 -9.38544 6.45611
Spine1  13.4741 -5.14143 -5.28009
HEad  -22.7433 -3.73728 -3.39692
LeftShoulder1  1.89212 -3.96942 -18.7854
LeftArm  -8.65954 -40.6387 -49.8208
LeftForeArm  23.2834 -15.4119 -4.09765
LeftHand  -0.0422802 2.11388 1.06223
RightShoulder  0.621267 1.3035 5.11907
RightArm  -9.36023 59.2199 39.7113
RightForeArm  -1.12627 11.286 1.89292
RightHand  -0.771569 5.44516 -8.5565
LeftUpLeg  -29.7576 0.735957 -11.4348
LeftLeg  21.2407 0.738855 0.753569
LeftFoot  13.78 -1.95777 8.37999
LeftToes  2.58842e-009 -1.78069e-010 3.24654e-012
142
root  -57.3192 36.1023 4.22765 -44.023 -81.0435 39.6032
RightUpLeg  -29.8778 -23.7057 -17.2789
RightLeg  76.08 1.38063 5.21249
RightFoot  4.41929 -0.243898 1.42423
RightToes  5.82063e-011 0 -3.6325e-017
Spine  54.8492 -11.3197 7.87822
Spine1  12.9384 -6.24097 -5.70712
HEad  -24.6157 -5.68549 -3.2631
LeftShoulder1  2.13774 -5.35919 -17.5047
LeftArm  -9.9649 -45.4576 -50.3767
LeftForeArm  22.6236 -13.9343 -3.77877
LeftHand  -0.0828107 0.987462 2.09161
RightShoulder  0.627817 1.91214 3.56802
RightArm  -13.863 60.5712 33.4665
RightForeArm  -2.08353 10.1769 1.48716
RightHand  -0.686318 5.31794 -7.73806
LeftUpLeg  -32.2124 -1.59283 -13.3033
LeftLeg  25.0592 0.417506 0.542864
LeftFoot  12.1442 -2.07965 9.61563
LeftToes  2.58842e-009 -1.78069e-010 3.24654e-012
143
root  -57.9806 36.1679 4.16509 -43.1819 -79.7553 40.5969
RightUpLeg  -35.0913 -24.5015 -16.9983
RightLeg  76.4912 1.34952 5.18211
RightFoot  2.26901 -0.111297 1.06164
RightToes  5.82063e-011 0 -3.6325e-017
Spine  57.0485 -11.8756 8.46132
Spine1  12.9254 -6.22247 -5.58215
HEad  -28.0375 -7.8008 -3.19012
LeftShoulder1  2.26868 -6.664 -15.508
LeftArm  -11.5046 -50.4174 -51.6119
LeftForeArm  22.1653 -13.3722 -2.86983
LeftHand  -0.100239 0.71401 2.41736
RightShoulder  0.65983 2.2617 3.43965
RightArm  -19.1819 63.2405 24.6331
RightForeArm  -2.79152 8.1208 1.47436
RightHand  -0.645865 5.13264 -7.40922
LeftUpLeg  -33.4709 -0.897289 -14.6692
LeftLeg  26.1497 -1.12783 -0.258251
LeftFoot  10.8938 -2.02427 9.93031
LeftToes  2.58842e-009 -1.78069e-010 3.24654e-012
